<svg id="Layer_1" data-name="Layer 1" xmlns="http://www.w3.org/2000/svg" viewBox="0 0 520 190"><defs><style>.cls-1{fill:#fff;}</style></defs><path class="cls-1" d="M279.82,73.21A6.19,6.19,0,0,0,275.77,72q-4.39,0-8.32,4.57a29.52,29.52,0,0,0-5.29,9.92L261.58,72l-15.86,2.2v1.1a7.36,7.36,0,0,1,3.55,3.35,16.63,16.63,0,0,1,1,6.59v44.5a10.3,10.3,0,0,1-1,5.16,5.16,5.16,0,0,1-1.51,1.47,5.33,5.33,0,0,1-2,.73v1.16h23.86v-1.16q-4.25-1-5.79-3.16c-1-1.41-1.55-3.66-1.55-6.77V89.65a29,29,0,0,1,4.26-7.34,6.05,6.05,0,0,1,4.53-2,7.47,7.47,0,0,1,2.72.52,8.15,8.15,0,0,0,3,.51,4.61,4.61,0,0,0,2.58-.86,4.64,4.64,0,0,0,1.79-4.88,4.6,4.6,0,0,0-1.4-2.33Z"/><path class="cls-1" d="M372.61,72.08v1.17q7.09,2.61,7.09,8.92a19.73,19.73,0,0,1-.39,3.6A54.37,54.37,0,0,1,378,91.12q-1,3.21-2.65,7.78l-8.83,23.42L353.38,89c-1.29-3.3-2.12-5.64-2.52-6.93a14.44,14.44,0,0,1-.58-4,4.72,4.72,0,0,1,3.48-4.7V72.19H330.28v1.17c1.72.78,3.45,2.68,5.23,5.67a138,138,0,0,1,7,15.1l18.07,44.27h2.32l16.51-39.84q3.09-7.32,5.23-12c1.42-3.08,2.64-5.53,3.67-7.3a16.27,16.27,0,0,1,3-4,10.48,10.48,0,0,1,3.3-2V72.18Z"/><path class="cls-1" d="M439.7,123.47q-5.42,5.94-14.32,5.94a21.46,21.46,0,0,1-12.89-4.12,27.51,27.51,0,0,1-8.92-11.43,40.58,40.58,0,0,1-3.23-16.45v-.12h39.87v-3q0-10.45-6.19-16.71T417.6,71.38a23.2,23.2,0,0,0-13.82,4.33,29,29,0,0,0-9.53,11.9,41,41,0,0,0-3.48,17.28,42.53,42.53,0,0,0,3.67,18.27,28.43,28.43,0,0,0,10.31,12.12,27.58,27.58,0,0,0,15.42,4.33A18.71,18.71,0,0,0,432,135.75q4.95-3.88,8.32-11.9Zm-34.84-43a14,14,0,0,1,5.19-4.7,14.19,14.19,0,0,1,6.82-1.61,11.91,11.91,0,0,1,8.77,3.3,11.47,11.47,0,0,1,2.58,4A11.64,11.64,0,0,1,429,86.2c0,2.83-1,5-3,6.18s-5.34,2-10.07,2.2L400.46,95C400.8,89.1,402.22,84.21,404.86,80.5Z"/><path class="cls-1" d="M445,138.3v-1.16a5.33,5.33,0,0,0,2-.73,5.12,5.12,0,0,0,1.5-1.47,10.21,10.21,0,0,0,1-5.16V65.87a16.38,16.38,0,0,0-1-6.58,7.17,7.17,0,0,0-3.54-3.35V54.77l16.51-2.9v77.91a9.63,9.63,0,0,0,1.1,5.16,5.15,5.15,0,0,0,1.49,1.45,5.29,5.29,0,0,0,1.93.75v1.16Z"/><path class="cls-1" d="M347.65,136.32c-1.22-.16-2.37-1-3.44-2.67a22.82,22.82,0,0,1-2.72-6.83L330.42,91.53c-2-7.76-5.05-14-8.92-17.08s-9.32-4.27-16.52-3.71a33.27,33.27,0,0,0-10.49,2.38,18.1,18.1,0,0,0-6.88,5.11,9,9,0,0,0-2.21,6.56,4.64,4.64,0,0,0,.39,1.72,4.52,4.52,0,0,0,1,1.44,4.09,4.09,0,0,0,1.48.83,4,4,0,0,0,1.69.16c2.49-.19,3.82-2,4-5.28.18-3.15,1-5.53,2.55-7.1a10.06,10.06,0,0,1,6.65-2.67,10.76,10.76,0,0,1,6.37,1.19,12.26,12.26,0,0,1,4.43,5.48,60.68,60.68,0,0,1,2.59,6.63q-16.06,8.66-23.49,16.7a23,23,0,0,0-6.34,19,16.54,16.54,0,0,0,7.51,12.89c4.48,3,9,4.28,15.85,3.64a25.54,25.54,0,0,0,13.88-5.29,24.85,24.85,0,0,0,5.53-6.43c1.27,3.71,2.77,6.38,4.48,7.93,2,1.75,5,2.51,8.78,2.22l4.9-.38Zm-22.55-7.57a17.43,17.43,0,0,1-8.92,3.68c-4.7.43-9.31-.61-12.32-3.25s-4.76-6.41-5.19-11.28c-.54-5.73,1.68-11.11,5.19-16.05A56.62,56.62,0,0,1,317.25,89c.35,1.15.7,2.36,1,3.6l10.5,32.71A24,24,0,0,1,325.1,128.75Z"/><path class="cls-1" d="M205.64,55v73.47c0,2.84-.48,4.86-1.42,6.07s-2.66,2.06-5.16,2.59v1.29h26.07v-1.29c-2.51-.52-4.22-1.38-5.16-2.59s-1.42-3.23-1.42-6.07V55h1c9.61.26,19.21,4.36,24.54,13.87l1.58-.27-4.49-16.69H183l-4.5,16.72,1.58.27c5.34-9.55,14.94-13.65,24.54-13.87Z"/><path class="cls-1" d="M279.82,73.21A6.19,6.19,0,0,0,275.77,72q-4.39,0-8.32,4.57a29.52,29.52,0,0,0-5.29,9.92L261.58,72l-15.86,2.2v1.1a7.36,7.36,0,0,1,3.55,3.35,16.63,16.63,0,0,1,1,6.59v44.5a10.3,10.3,0,0,1-1,5.16,5.16,5.16,0,0,1-1.51,1.47,5.33,5.33,0,0,1-2,.73v1.16h23.86v-1.16q-4.25-1-5.79-3.16c-1-1.41-1.55-3.66-1.55-6.77V89.65a29,29,0,0,1,4.26-7.34,6.05,6.05,0,0,1,4.53-2,7.47,7.47,0,0,1,2.72.52,8.15,8.15,0,0,0,3,.51,4.61,4.61,0,0,0,2.58-.86,4.64,4.64,0,0,0,1.79-4.88,4.6,4.6,0,0,0-1.4-2.33Z"/><path class="cls-1" d="M372.61,72.08v1.17q7.09,2.61,7.09,8.92a19.73,19.73,0,0,1-.39,3.6A54.37,54.37,0,0,1,378,91.12q-1,3.21-2.65,7.78l-8.83,23.42L353.38,89c-1.29-3.3-2.12-5.64-2.52-6.93a14.44,14.44,0,0,1-.58-4,4.72,4.72,0,0,1,3.48-4.7V72.19H330.28v1.17c1.72.78,3.45,2.68,5.23,5.67a138,138,0,0,1,7,15.1l18.07,44.27h2.32l16.51-39.84q3.09-7.32,5.23-12c1.42-3.08,2.64-5.53,3.67-7.3a16.27,16.27,0,0,1,3-4,10.48,10.48,0,0,1,3.3-2V72.18Z"/><path class="cls-1" d="M439.7,123.47q-5.42,5.94-14.32,5.94a21.46,21.46,0,0,1-12.89-4.12,27.51,27.51,0,0,1-8.92-11.43,40.58,40.58,0,0,1-3.23-16.45v-.12h39.87v-3q0-10.45-6.19-16.71T417.6,71.38a23.2,23.2,0,0,0-13.82,4.33,29,29,0,0,0-9.53,11.9,41,41,0,0,0-3.48,17.28,42.53,42.53,0,0,0,3.67,18.27,28.43,28.43,0,0,0,10.31,12.12,27.58,27.58,0,0,0,15.42,4.33A18.71,18.71,0,0,0,432,135.75q4.95-3.88,8.32-11.9Zm-34.84-43a14,14,0,0,1,5.19-4.7,14.19,14.19,0,0,1,6.82-1.61,11.91,11.91,0,0,1,8.77,3.3,11.47,11.47,0,0,1,2.58,4A11.64,11.64,0,0,1,429,86.2c0,2.83-1,5-3,6.18s-5.34,2-10.07,2.2L400.46,95C400.8,89.1,402.22,84.21,404.86,80.5Z"/><path class="cls-1" d="M445,138.3v-1.16a5.33,5.33,0,0,0,2-.73,5.12,5.12,0,0,0,1.5-1.47,10.21,10.21,0,0,0,1-5.16V65.87a16.38,16.38,0,0,0-1-6.58,7.17,7.17,0,0,0-3.54-3.35V54.77l16.51-2.9v77.91a9.63,9.63,0,0,0,1.1,5.16,5.15,5.15,0,0,0,1.49,1.45,5.29,5.29,0,0,0,1.93.75v1.16Z"/><path class="cls-1" d="M347.65,136.32c-1.22-.16-2.37-1-3.44-2.67a22.82,22.82,0,0,1-2.72-6.83L330.42,91.53c-2-7.76-5.05-14-8.92-17.08s-9.32-4.27-16.52-3.71a33.27,33.27,0,0,0-10.49,2.38,18.1,18.1,0,0,0-6.88,5.11,9,9,0,0,0-2.21,6.56,4.64,4.64,0,0,0,.39,1.72,4.52,4.52,0,0,0,1,1.44,4.09,4.09,0,0,0,1.48.83,4,4,0,0,0,1.69.16c2.49-.19,3.82-2,4-5.28.18-3.15,1-5.53,2.55-7.1a10.06,10.06,0,0,1,6.65-2.67,10.76,10.76,0,0,1,6.37,1.19,12.26,12.26,0,0,1,4.43,5.48,60.68,60.68,0,0,1,2.59,6.63q-16.06,8.66-23.49,16.7a23,23,0,0,0-6.34,19,16.54,16.54,0,0,0,7.51,12.89c4.48,3,9,4.28,15.85,3.64a25.54,25.54,0,0,0,13.88-5.29,24.85,24.85,0,0,0,5.53-6.43c1.27,3.71,2.77,6.38,4.48,7.93,2,1.75,5,2.51,8.78,2.22l4.9-.38Zm-22.55-7.57a17.43,17.43,0,0,1-8.92,3.68c-4.7.43-9.31-.61-12.32-3.25s-4.76-6.41-5.19-11.28c-.54-5.73,1.68-11.11,5.19-16.05A56.62,56.62,0,0,1,317.25,89c.35,1.15.7,2.36,1,3.6l10.5,32.71A24,24,0,0,1,325.1,128.75Z"/><path class="cls-1" d="M205.64,55v73.47c0,2.84-.48,4.86-1.42,6.07s-2.66,2.06-5.16,2.59v1.29h26.07v-1.29c-2.51-.52-4.22-1.38-5.16-2.59s-1.42-3.23-1.42-6.07V55h1c9.61.26,19.21,4.36,24.54,13.87l1.58-.27-4.49-16.69H183l-4.5,16.72,1.58.27c5.34-9.55,14.94-13.65,24.54-13.87Z"/><path class="cls-1" d="M76.26,37.34a4.08,4.08,0,0,0-2.88,1.19,3.82,3.82,0,0,0-.88,1.32,4,4,0,0,0-.31,1.56V69.94h75.38L113.3,37.34Z"/><path class="cls-1" d="M150.32,78.57a4.06,4.06,0,0,0-4.06-4.07H117.72v75.33l32.6-34.32Z"/><path class="cls-1" d="M109.08,152.66a4,4,0,0,0,2.87-1.19,4,4,0,0,0,.88-1.32,4.13,4.13,0,0,0,.31-1.56V120H37.81L72.12,152.6Z"/><path class="cls-1" d="M35,111.39a4,4,0,0,0,.31,1.56,4,4,0,0,0,.88,1.32,4.08,4.08,0,0,0,2.87,1.19H67.6V40.07L35,74.41Z"/><path class="cls-1" d="M472.85,59.68a3.13,3.13,0,0,1-2.09-.62,2.2,2.2,0,0,1-.58-.8,2.17,2.17,0,0,1-.17-1h1a1.27,1.27,0,0,0,.11.54,1.22,1.22,0,0,0,.33.45,2.21,2.21,0,0,0,1.37.34,2.65,2.65,0,0,0,1.41-.31,1,1,0,0,0,.35-.38,1,1,0,0,0,.12-.5,1,1,0,0,0-.09-.42.89.89,0,0,0-.27-.34,2.34,2.34,0,0,0-1.12-.44l-.88-.15a3,3,0,0,1-1.56-.73,2,2,0,0,1-.45-.63,2,2,0,0,1-.15-.76,1.84,1.84,0,0,1,.17-.86,1.73,1.73,0,0,1,.55-.68,3.24,3.24,0,0,1,2-.58,3,3,0,0,1,2,.58,2.16,2.16,0,0,1,.56.77,2.1,2.1,0,0,1,.15.93h-1a1,1,0,0,0-.08-.54,1.12,1.12,0,0,0-.32-.45,2,2,0,0,0-1.27-.31,2.47,2.47,0,0,0-1.28.3.87.87,0,0,0-.32.34.86.86,0,0,0-.11.45,1.07,1.07,0,0,0,.1.39.9.9,0,0,0,.25.33,2.1,2.1,0,0,0,1,.4l.87.14a3.32,3.32,0,0,1,1.74.77,2,2,0,0,1,.45.66,2,2,0,0,1,.15.79,1.89,1.89,0,0,1-.19.91,2,2,0,0,1-.6.71A3.4,3.4,0,0,1,472.85,59.68Zm4.29-.06v-7.7h1.12v7.7Zm3.56,0-3.35-7.7h1.17l2.54,6,2.53-6h1.17l-3.35,7.7Zm3.14,0v-7.7H485v7.7Z"/></svg>